# AST/ASF file generated using VICON BodyLanguage
# -----------------------------------------------
:version 1.10
:name VICON
:units
  mass 1.0
  length 0.45
  angle deg
:documentation
   .ast/.asf automatically generated from VICON data using
   VICON BodyBuilder and BodyLanguage model FoxedUp or BRILLIANT.MOD
:root
   order TX TY TZ RX RY RZ
   axis XYZ
   position 0 0 0  
   orientation 0 0 0 
:bonedata
  begin
     id 1 
     name lhipjoint
     direction 0.573633 -0.743009 0.344793 
     length 2.46257 
     axis 0 0 0  XYZ
  end
  begin
     id 2 
     name lfemur
     direction 0.34202 -0.939693 0  
     length 7.3842  
     axis 0 0 20  XYZ
    dof rx ry rz
    limits (-160.0 20.0)
           (-70.0 70.0)
           (-60.0 70.0)
  end
  begin
     id 3 
     name ltibia
     direction 0.34202 -0.939693 0   
     length 7.50407   
     axis 0 0 20   XYZ
    dof rx
    limits (-10.0 170.0)
  end
  begin
     id 4 
     name lfoot
     direction 0.110749 -0.304281 0.946123   
     length 1.95925   
     axis -90 7.62852e-016 20   XYZ
    dof rx rz
    limits (-45.0 90.0)
           (-70.0 20.0)
  end
  begin
     id 5 
     name ltoes
     direction 1.53554e-011 -4.21843e-011 1   
     length 0.978318   
     axis -90 7.62852e-016 20   XYZ
    dof rx
    limits (-90.0 20.0)
  end
  begin
     id 6 
     name rhipjoint
     direction -0.488109 -0.791693 0.367385   
     length 2.31113  
     axis 0 0 0  XYZ 
  end
  begin
     id 7 
     name rfemur
     direction -0.34202 -0.939693 0   
     length 7.40965   
     axis 0 0 -20   XYZ
    dof rx ry rz
    limits (-160.0 20.0)
           (-70.0 70.0)
           (-70.0 60.0)
  end
  begin
     id 8 
     name rtibia
     direction -0.34202 -0.939693 0   
     length 7.55548   
     axis 0 0 -20   XYZ
    dof rx
    limits (-10.0 170.0)
 end
 begin
     id 9 
     name rfoot
     direction -0.127594 -0.350561 0.927808   
     length 2.07199  
     axis -90 -7.62852e-016 -20   XYZ
    dof rx rz
    limits (-45.0 90.0)
           (-20.0 70.0)
  end
  begin
     id 10 
     name rtoes
     direction -1.53542e-011 -4.21909e-011 1   
     length 1.02667   
     axis -90 -7.62852e-016 -20   XYZ
    dof rx
    limits (-90.0 20.0)
  end
  begin
     id 11 
     name lowerback
     direction -0.0103342 0.997298 -0.0727278   
     length 2.02836   
     axis 0 0 0   XYZ
    dof rx ry rz
    limits (-20.0 45.0)
           (-30.0 30.0)
           (-30.0 30.0)
  end
  begin
     id 12 
     name upperback
     direction 0.0171146 0.999786 -0.011606   
     length 2.03179   
     axis 0 0 0   XYZ
    dof rx ry rz
    limits (-20.0 45.0)
           (-30.0 30.0)
           (-30.0 30.0)
  end
  begin
     id 13 
     name thorax
     direction 0.0216927 0.999513 0.0224343   
     length 2.03882   
     axis 0 0 0   XYZ
    dof rx ry rz
    limits (-20.0 45.0)
           (-30.0 30.0)
           (-30.0 30.0)
  end
  begin
     id 14 
     name lowerneck
     direction 0.000989287 0.993907 0.110221   
     length 1.75428   
     axis 0 0 0   XYZ
    dof rx ry rz
    limits (-20.0 45.0)
           (-30.0 30.0)
           (-30.0 30.0)
  end
  begin
     id 15 
     name upperneck
     direction -0.0172474 0.994813 -0.100253   
     length 1.77058   
     axis 0 0 0   XYZ
    dof rx ry rz
    limits (-20.0 45.0)
           (-30.0 30.0)
           (-30.0 30.0)
  end
  begin
     id 16
     name head
     direction -0.00486455 0.99894 -0.0457663  
     length 1.77427  
     axis 0 0 0   XYZ
    dof rx ry rz
    limits (-20.0 45.0)
           (-30.0 30.0)
           (-30.0 30.0)
  end
  begin
     id 17 
     name lclavicle
     direction 0.927314 0.333734 -0.169441  
     length 3.97584  
     axis 0 0 0   XYZ
    dof ry rz
    limits (-20.0 10.0)
           (0.0 20.0)
  end
  begin
     id 18 
     name lhumerus
     direction 1 -4.48965e-011 -3.25313e-028   
     length 4.76468   
     axis 180 -30 -90   XYZ
    dof rx ry rz
    limits (-60.0 90.0)
           (-90.0 90.0)
           (-90.0 90.0)
  end
  begin
     id 19
     name lradius
     direction 1 -4.48969e-011 -2.8465e-028   
     length 3.52712   
     axis -180 -30 -90   XYZ
    dof rx
    limits (-10.0 170.0)
  end
  begin
     id 20
     name lwrist
     direction 1 -4.4896e-011 -7.78665e-028   
     length 1.76356   
     axis 1.91374e-015 90 90   XYZ
    dof ry
    limits (-180.0 0.0)
 end
  begin
     id 21 
     name lhand
     direction 1 -4.48959e-011 -1.55733e-027   
     length 0.859564   
     axis 9.9371e-016 90 90   XYZ
    dof rx rz
    limits (-90.0 90.0)
           (-45.0 45.0)
  end
  begin
     id 22 
     name lfingers
     direction 1 -4.48965e-011 -3.11466e-027   
     length 0.693002   
     axis 1.98742e-015 90 90   XYZ
    dof rx
    limits (0.0 90.0)
  end
  begin
     id 23
     name lthumb
     direction 0.707107 -6.34948e-011 0.707107   
     length 0.995017   
     axis -90 45 2.85299e-015   XYZ
    dof rx rz
    limits (-45.0 45.0)
           (-45.0 45.0)
  end
  begin
     id 24 
     name rclavicle
     direction -0.899388 0.348209 -0.264294   
     length 3.68366  
     axis 0 0 0   XYZ 
    dof ry rz
    limits (-10.0 20.0)
           (-20.0 0.0)
  end
  begin
     id 25 
     name rhumerus
     direction -1 -4.48965e-011 -3.01536e-027  
     length 4.90577   
     axis 180 30 90   XYZ
    dof rx ry rz
    limits (-90.0 60.0)
           (-90.0 90.0)
           (-90.0 90.0)
  end
  begin
     id 26 
     name rradius
     direction -1 -4.48966e-011 3.93291e-027   
     length 3.42692   
     axis -180 30 90   XYZ
    dof rx
    limits (-10.0 170.0)
  end
  begin
     id 27 
     name rwrist
     direction -1 -4.48969e-011 -7.78665e-028   
     length 1.71346   
     axis 1.91374e-015 -90 -90   XYZ
    dof ry
    limits (-180.0 0.0)
  end
  begin
     id 28
     name rhand
     direction -1 -4.48967e-011 -1.55733e-027   
     length 0.740957   
     axis 9.9371e-016 -90 -90   XYZ
    dof rx rz
    limits (-90.0 90.0)
           (-45.0 45.0)
  end
  begin
     id 29
     name rfingers
     direction -1 -4.48949e-011 -3.11466e-027   
     length 0.597378   
     axis 1.98742e-015 -90 -90   XYZ
    dof rx
    limits (0.0 90.0)
  end
  begin
     id 30
     name rthumb
     direction -0.707107 -6.34931e-011 0.707107   
     length 0.857719   
     axis -90 -45 -2.85299e-015   XYZ
    dof rx rz
    limits (-45.0 45.0)
           (-45.0 45.0)
  end
:hierarchy
  begin
    root lhipjoint rhipjoint lowerback
    lhipjoint lfemur
    lfemur ltibia
    ltibia lfoot
    lfoot ltoes
    rhipjoint rfemur
    rfemur rtibia
    rtibia rfoot
    rfoot rtoes
    lowerback upperback
    upperback thorax
    thorax lowerneck lclavicle rclavicle
    lowerneck upperneck
    upperneck head
    lclavicle lhumerus
    lhumerus lradius
    lradius lwrist
    lwrist lhand lthumb
    lhand lfingers
    rclavicle rhumerus
    rhumerus rradius
    rradius rwrist
    rwrist rhand rthumb
    rhand rfingers
  end

#!OML:ASF I:\AllaLogoMonkeySwing\Project 1\Capture day 1\Session 1\Subject1.ASF
:FULLY-SPECIFIED
:DEGREES
140
root -0.207084 16.8702 2.63275 -1.17448 4.7149 -1.89436
lowerback 16.436 1.73684 0.939789
upperback 1.90012 2.66583 2.53795
thorax -7.2624 1.30465 1.58123
lowerneck -13.545 -0.458696 -2.86629
upperneck 19.9968 0.221447 -0.820534
head 8.46167 -0.187815 0.228516
rclavicle -2.14687e-014 1.11319e-014
rhumerus -38.2114 3.4947 -82.1916
rradius 50.1775
rwrist -3.75454
rhand -15.5116 -35.0178
rfingers 7.12502
rthumb 10.6713 -64.7269
lclavicle -2.14687e-014 1.11319e-014
lhumerus -47.1334 12.5911 86.526
lradius 57.7687
lwrist 0.226521
lhand -13.0157 -20.9644
lfingers 7.12502
lthumb 13.0781 8.60559
rfemur -9.30176 -2.73621 4.98054
rtibia 32.7314
rfoot -17.7876 -9.55234
rtoes -1.1498
lfemur -14.8411 -4.77872 -4.24696
ltibia 35.0315
lfoot -21.2395 -1.99627
ltoes -41.1243
141
root -0.206111 16.9336 2.75 -0.298729 4.77203 -1.75525
lowerback 15.9049 1.63033 1.07628
upperback 1.62428 2.54354 2.52249
thorax -7.25622 1.24219 1.52472
lowerneck -13.7967 -0.372613 -2.74294
upperneck 20.1154 0.372278 -1.04179
head 8.54716 -0.132944 0.150331
rclavicle -9.44227e-015 -8.74653e-015
rhumerus -38.5969 4.37828 -82.3608
rradius 51.0216
rwrist -5.47834
rhand -14.4423 -35.3041
rfingers 7.12502
rthumb 11.7026 -64.9573
lclavicle -9.44227e-015 -8.74653e-015
lhumerus -47.7558 12.0151 87.1375
lradius 58.7649
lwrist 1.70034
lhand -14.0349 -20.6797
lfingers 7.12502
lthumb 12.0954 8.95073
rfemur -8.84203 -2.45035 4.96858
rtibia 30.9937
rfoot -17.4126 -9.93362
rtoes -0.583416
lfemur -14.4995 -5.05275 -4.37807
ltibia 33.5072
lfoot -20.8084 -1.73059
ltoes -40.885
142
root -0.211851 16.978 2.85861 0.632205 4.76442 -1.56692
lowerback 15.4324 1.56246 1.09687
upperback 1.32648 2.45229 2.49379
thorax -7.31025 1.19755 1.5105
lowerneck -13.8901 -0.267748 -2.63256
upperneck 20.102 0.539115 -1.24298
head 8.55939 -0.0673125 0.0831198
rclavicle 4.87022e-015 1.11319e-014
rhumerus -38.8414 4.98698 -82.453
rradius 51.7479
rwrist -7.05571
rhand -13.0618 -35.5404
rfingers 7.12502
rthumb 13.0336 -65.1132
lclavicle 4.87022e-015 1.11319e-014
lhumerus -48.2743 11.4297 87.6556
lradius 59.5599
lwrist 3.25441
lhand -15.0296 -20.5844
lfingers 7.12502
lthumb 11.1362 9.10011
rfemur -8.72547 -2.10054 4.90721
rtibia 29.6986
rfoot -17.1367 -10.4044
rtoes -0.882215
lfemur -14.3811 -5.06907 -4.49115
ltibia 32.2356
lfoot -20.57 -1.66539
ltoes -40.7645
143
root -0.221785 17.0071 2.95944 1.39317 4.66032 -1.3647
lowerback 15.2412 1.49136 1.00432
upperback 1.08733 2.34191 2.45672
thorax -7.46064 1.1463 1.54935
lowerneck -13.9739 -0.110849 -2.45666
upperneck 20.0349 0.746679 -1.38238
head 8.55144 0.0294268 0.030525
rclavicle -1.49089e-015 -1.51076e-014
rhumerus -38.8563 5.40231 -82.5672
rradius 52.2736
rwrist -8.19467
rhand -12.0415 -35.5182
rfingers 7.12502
rthumb 14.017 -65.0256
lclavicle -1.49089e-015 -1.51076e-014
lhumerus -48.7631 10.8934 88.0416
lradius 60.2824
lwrist 4.67611
lhand -15.0538 -19.2943
lfingers 7.12502
lthumb 11.1129 10.3915
rfemur -8.7052 -1.72823 4.82088
rtibia 28.8362
rfoot -17.074 -10.8113
rtoes -1.84333
lfemur -14.2164 -4.94979 -4.59561
ltibia 31.1893
lfoot -20.4753 -1.71719
ltoes -40.6694
144
root -0.231933 17.024 3.05178 2.04618 4.35018 -0.985074
lowerback 15.2416 1.46866 0.687136
upperback 0.930867 2.2542 2.36119
thorax -7.6354 1.11249 1.64477
lowerneck -14.0432 0.0790705 -2.23276
upperneck 19.8695 0.980931 -1.50374
head 8.50805 0.14548 -0.0208587
rclavicle -2.3556e-014 3.18055e-015
rhumerus -38.654 5.60062 -82.684
rradius 52.6589
rwrist -8.76512
rhand -11.4242 -35.5026
rfingers 7.12502
rthumb 14.6118 -64.9678
lclavicle -2.3556e-014 3.18055e-015
lhumerus -49.1975 10.3362 88.3636
lradius 60.9975
lwrist 5.92194
lhand -14.931 -18.4421
lfingers 7.12502
lthumb 11.2313 11.2372
rfemur -8.85261 -1.42509 4.48187
rtibia 28.3307
rfoot -17.1768 -10.9031
rtoes -2.56441
lfemur -13.9747 -4.72283 -4.91379
ltibia 30.3432
lfoot -20.4325 -1.68337
ltoes -40.5731
